<svg xmlns="http://www.w3.org/2000/svg" width="45" height="31.5" viewBox="0 0 45 31.5">
  <path id="Icon_awesome-bezier-curve" data-name="Icon awesome-bezier-curve" d="M25.875,2.25h-6.75a2.25,2.25,0,0,0-2.25,2.25v6.75a2.25,2.25,0,0,0,2.25,2.25h6.75a2.25,2.25,0,0,0,2.25-2.25V4.5A2.25,2.25,0,0,0,25.875,2.25ZM14.625,6.188H8.666a4.5,4.5,0,1,0,0,3.375h5.606A16.327,16.327,0,0,0,6.57,20.25h3.473a12.916,12.916,0,0,1,4.995-7.141,4.449,4.449,0,0,1-.413-1.859ZM11.25,22.5H4.5a2.25,2.25,0,0,0-2.25,2.25V31.5A2.25,2.25,0,0,0,4.5,33.75h6.75A2.25,2.25,0,0,0,13.5,31.5V24.75A2.25,2.25,0,0,0,11.25,22.5ZM40.5,3.375a4.5,4.5,0,0,0-4.166,2.813H30.375V11.25a4.46,4.46,0,0,1-.413,1.859,12.916,12.916,0,0,1,4.995,7.141H38.43a16.327,16.327,0,0,0-7.7-10.687h5.606A4.5,4.5,0,1,0,40.5,3.375Zm0,19.125H33.75a2.25,2.25,0,0,0-2.25,2.25V31.5a2.25,2.25,0,0,0,2.25,2.25H40.5a2.25,2.25,0,0,0,2.25-2.25V24.75A2.25,2.25,0,0,0,40.5,22.5Z" transform="translate(0 -2.25)" fill="#6700ee"/>
</svg>
